<?xml version="1.0" encoding="UTF-8" standalone="no"?>
<!-- Created with Inkscape (http://www.inkscape.org/) -->

<svg
   xmlns:dc="http://purl.org/dc/elements/1.1/"
   xmlns:cc="http://creativecommons.org/ns#"
   xmlns:rdf="http://www.w3.org/1999/02/22-rdf-syntax-ns#"
   xmlns:svg="http://www.w3.org/2000/svg"
   xmlns="http://www.w3.org/2000/svg"
   xmlns:sodipodi="http://sodipodi.sourceforge.net/DTD/sodipodi-0.dtd"
   xmlns:inkscape="http://www.inkscape.org/namespaces/inkscape"
   width="512"
   height="512"
   viewBox="0 0 511.99999 511.99999"
   id="svg2"
   version="1.1"
   inkscape:version="0.91 r13725"
   sodipodi:docname="icon.svg">
  <defs
     id="defs4" />
  <sodipodi:namedview
     id="base"
     pagecolor="#ffffff"
     bordercolor="#666666"
     borderopacity="1.0"
     inkscape:pageopacity="0.0"
     inkscape:pageshadow="2"
     inkscape:zoom="0.7"
     inkscape:cx="227.32632"
     inkscape:cy="149.44733"
     inkscape:document-units="px"
     inkscape:current-layer="layer1"
     showgrid="false"
     units="px"
     inkscape:window-width="1920"
     inkscape:window-height="1016"
     inkscape:window-x="0"
     inkscape:window-y="27"
     inkscape:window-maximized="1" />
  <metadata
     id="metadata7">
    <rdf:RDF>
      <cc:Work
         rdf:about="">
        <dc:format>image/svg+xml</dc:format>
        <dc:type
           rdf:resource="http://purl.org/dc/dcmitype/StillImage" />
        <dc:title></dc:title>
      </cc:Work>
    </rdf:RDF>
  </metadata>
  <g
     inkscape:label="Ebene 1"
     inkscape:groupmode="layer"
     id="layer1"
     transform="translate(0,-540.36219)">
    <path
       style="fill:#ff0000"
       id="path3336"
       sodipodi:type="arc"
       sodipodi:cx="251.42856"
       sodipodi:cy="780.93365"
       sodipodi:rx="215.71428"
       sodipodi:ry="215.71428"
       sodipodi:start="0"
       sodipodi:end="6.275914"
       d="M 467.14284,780.93365 A 215.71428,215.71428 0 0 1 251.82069,996.64758 215.71428,215.71428 0 0 1 35.715705,781.71792 215.71428,215.71428 0 0 1 250.25217,565.22258 215.71428,215.71428 0 0 1 467.13713,779.36514"
       sodipodi:open="true" />
    <path
       style="fill:#333333"
       id="path3336-4"
       sodipodi:type="arc"
       sodipodi:cx="251.42856"
       sodipodi:cy="780.93365"
       sodipodi:rx="197.85713"
       sodipodi:ry="201.42857"
       sodipodi:start="0"
       sodipodi:end="6.275914"
       d="M 449.28569,780.93365 A 197.85713,201.42857 0 0 1 251.78823,982.3619 197.85713,201.42857 0 0 1 53.572734,781.66598 197.85713,201.42857 0 0 1 250.34955,579.50808 197.85713,201.42857 0 0 1 449.28046,779.46902"
       sodipodi:open="true" />
    <path
       style="fill:#ffffff"
       id="path3336-3"
       sodipodi:type="arc"
       sodipodi:cx="252.71391"
       sodipodi:cy="793.44983"
       sodipodi:rx="175.42892"
       sodipodi:ry="175.42892"
       sodipodi:start="6.1088684"
       sodipodi:end="2.7266029"
       d="M 425.48425,763.02424 A 175.42892,175.42892 0 0 1 303.6599,961.31827 175.42892,175.42892 0 0 1 92.175316,864.17936"
       sodipodi:open="true" />
    <path
       style="fill:#ff0000"
       id="path3336-6"
       sodipodi:type="arc"
       sodipodi:cx="251.42856"
       sodipodi:cy="780.93365"
       sodipodi:rx="215.71428"
       sodipodi:ry="215.71428"
       sodipodi:start="2.6642473"
       sodipodi:end="6.1575654"
       d="M 59.827327,880.03773 A 215.71428,215.71428 0 0 1 84.661462,644.10754 215.71428,215.71428 0 0 1 311.1952,573.66427 215.71428,215.71428 0 0 1 465.44305,753.90686"
       sodipodi:open="true" />
    <text
       xml:space="preserve"
       style="font-style:normal;font-weight:normal;font-size:40px;line-height:125%;font-family:sans-serif;letter-spacing:0px;word-spacing:0px;fill:#000000;fill-opacity:1;stroke:none;stroke-width:1px;stroke-linecap:butt;stroke-linejoin:miter;stroke-opacity:1"
       x="-145.13069"
       y="789.52881"
       id="text3353"
       sodipodi:linespacing="125%"
       transform="matrix(0.95279206,-0.30362359,0.30362359,0.95279206,0,0)"
       inkscape:transform-center-x="2.8571428"
       inkscape:transform-center-y="-22.857142"><tspan
         sodipodi:role="line"
         id="tspan3355"
         x="-145.13069"
         y="789.52881"
         style="font-style:normal;font-variant:normal;font-weight:normal;font-stretch:normal;font-size:112.5px;font-family:Waree;-inkscape-font-specification:Waree;fill:#ffffff">sag's</tspan></text>
    <path
       style="fill:#ff0000"
       d="m 91.42857,855.21932 98.57141,-30 c 2e-5,121.4287 0,0 2e-5,121.4287 -98.57143,-91.4287 -98.57143,-91.4287 -98.57143,-91.4287 z"
       id="rect3357"
       inkscape:connector-curvature="0"
       sodipodi:nodetypes="cccc" />
    <path
       style="fill:#ff0000"
       d="m 143.57143,835.93356 98.57141,-30 c 2e-5,121.4287 0,0 2e-5,121.4287 -98.57143,-91.4287 -98.57143,-91.4287 -98.57143,-91.4287 z"
       id="rect3357-3"
       inkscape:connector-curvature="0"
       sodipodi:nodetypes="cccc" />
  </g>
</svg>
