<?xml version="1.0" encoding="UTF-8" standalone="no"?>
<!-- Created with Inkscape (http://www.inkscape.org/) -->

<svg
   xmlns:dc="http://purl.org/dc/elements/1.1/"
   xmlns:cc="http://creativecommons.org/ns#"
   xmlns:rdf="http://www.w3.org/1999/02/22-rdf-syntax-ns#"
   xmlns:svg="http://www.w3.org/2000/svg"
   xmlns="http://www.w3.org/2000/svg"
   xmlns:sodipodi="http://sodipodi.sourceforge.net/DTD/sodipodi-0.dtd"
   xmlns:inkscape="http://www.inkscape.org/namespaces/inkscape"
   width="1200"
   height="1200"
   viewBox="0 0 1200.0001 1200.0001"
   id="svg2"
   version="1.1"
   inkscape:version="0.91 r13725"
   sodipodi:docname="splash.svg"
   inkscape:export-filename="/home/pajoma/workspace/sagsunskoeln-app/source/resources/splash.png"
   inkscape:export-xdpi="90"
   inkscape:export-ydpi="90">
  <defs
     id="defs4" />
  <sodipodi:namedview
     id="base"
     pagecolor="#ffffff"
     bordercolor="#666666"
     borderopacity="1.0"
     inkscape:pageopacity="0.0"
     inkscape:pageshadow="2"
     inkscape:zoom="0.7"
     inkscape:cx="420.17905"
     inkscape:cy="656.64152"
     inkscape:document-units="px"
     inkscape:current-layer="layer1"
     showgrid="false"
     units="px"
     inkscape:window-width="1920"
     inkscape:window-height="1016"
     inkscape:window-x="0"
     inkscape:window-y="27"
     inkscape:window-maximized="1" />
  <metadata
     id="metadata7">
    <rdf:RDF>
      <cc:Work
         rdf:about="">
        <dc:format>image/svg+xml</dc:format>
        <dc:type
           rdf:resource="http://purl.org/dc/dcmitype/StillImage" />
        <dc:title></dc:title>
      </cc:Work>
    </rdf:RDF>
  </metadata>
  <g
     inkscape:groupmode="layer"
     id="layer2"
     inkscape:label="Ebene 2"
     style="display:inline">
    <rect
       style="display:inline;fill:#4d4d4d;fill-opacity:1"
       id="rect3336"
       width="1208.5715"
       height="1202.8573"
       x="-1.940142"
       y="-0.06967555" />
  </g>
  <g
     inkscape:label="Ebene 1"
     inkscape:groupmode="layer"
     id="layer1"
     transform="translate(0,147.63824)"
     style="display:inline">
    <path
       style="fill:#ffffff"
       id="path3336-4-3"
       sodipodi:type="arc"
       sodipodi:cx="611.42865"
       sodipodi:cy="426.64755"
       sodipodi:rx="205.41139"
       sodipodi:ry="209.11917"
       sodipodi:start="0"
       sodipodi:end="6.275914"
       d="M 816.84004,426.64755 A 205.41139,209.11917 0 0 1 611.80205,635.76638 205.41139,209.11917 0 0 1 406.01862,427.40784 205.41139,209.11917 0 0 1 610.30845,217.53149 205.41139,209.11917 0 0 1 816.83461,425.127"
       sodipodi:open="true" />
    <path
       style="display:inline;fill:#666666"
       id="path3336-4-3-5"
       sodipodi:type="arc"
       sodipodi:cx="611.42865"
       sodipodi:cy="426.64758"
       sodipodi:rx="204.6819"
       sodipodi:ry="208.37651"
       sodipodi:start="0"
       sodipodi:end="6.275914"
       d="M 816.11055,426.64758 A 204.6819,208.37651 0 0 1 611.80073,635.02375 204.6819,208.37651 0 0 1 406.7481,427.40517 204.6819,208.37651 0 0 1 610.31243,218.27417 204.6819,208.37651 0 0 1 816.10514,425.13243"
       sodipodi:open="true" />
    <path
       style="fill:#ffffff"
       id="path3336-4-3-6"
       sodipodi:type="arc"
       sodipodi:cx="613.67358"
       sodipodi:cy="427.25031"
       sodipodi:rx="160.00002"
       sodipodi:ry="160.00002"
       sodipodi:start="0"
       sodipodi:end="6.275914"
       d="M 773.6736,427.25031 A 160.00002,160.00002 0 0 1 613.96444,587.25006 160.00002,160.00002 0 0 1 453.67463,427.83201 160.00002,160.00002 0 0 1 612.80103,267.25267 160.00002,160.00002 0 0 1 773.66937,426.08691"
       sodipodi:open="true" />
    <path
       style="fill:#000000"
       id="path3336-4-3-6-7"
       sodipodi:type="arc"
       sodipodi:cx="613.67358"
       sodipodi:cy="427.25031"
       sodipodi:rx="151.01018"
       sodipodi:ry="151.01018"
       sodipodi:start="0"
       sodipodi:end="6.275914"
       d="M 764.68376,427.25031 A 151.01018,151.01018 0 0 1 613.94809,578.26023 151.01018,151.01018 0 0 1 462.6644,427.79932 151.01018,151.01018 0 0 1 612.85006,276.24237 151.01018,151.01018 0 0 1 764.67977,426.15227"
       sodipodi:open="true" />
    <path
       style="fill:#ff0000"
       id="path3336"
       sodipodi:type="arc"
       sodipodi:cx="613.67358"
       sodipodi:cy="427.25031"
       sodipodi:rx="147.14287"
       sodipodi:ry="147.14287"
       sodipodi:start="0"
       sodipodi:end="6.275914"
       d="M 760.81645,427.25031 A 147.14287,147.14287 0 0 1 613.94106,574.39293 147.14287,147.14287 0 0 1 466.53169,427.78526 147.14287,147.14287 0 0 1 612.87115,280.10963 147.14287,147.14287 0 0 1 760.81256,426.18039"
       sodipodi:open="true" />
    <path
       style="fill:#333333"
       id="path3336-4"
       sodipodi:type="arc"
       sodipodi:cx="611.42865"
       sodipodi:cy="426.64755"
       sodipodi:rx="134.96217"
       sodipodi:ry="137.39832"
       sodipodi:start="0"
       sodipodi:end="6.275914"
       d="M 746.39082,426.64755 A 134.96217,137.39832 0 0 1 611.67399,564.04564 134.96217,137.39832 0 0 1 476.46737,427.14708 134.96217,137.39832 0 0 1 610.69264,289.25128 134.96217,137.39832 0 0 1 746.38726,425.6485"
       sodipodi:open="true" />
    <path
       style="fill:#ffffff"
       id="path3336-3"
       sodipodi:type="arc"
       sodipodi:cx="608.3432"
       sodipodi:cy="435.20981"
       sodipodi:rx="103.62569"
       sodipodi:ry="123.92445"
       sodipodi:start="6.1088684"
       sodipodi:end="2.7266029"
       d="M 710.39847,413.71692 A 103.62569,123.92445 0 0 1 638.43694,553.79347 103.62569,123.92445 0 0 1 513.51322,485.17374"
       sodipodi:open="true" />
    <path
       style="display:inline;fill:#ff0000"
       id="path3336-6"
       sodipodi:type="arc"
       sodipodi:cx="613.73047"
       sodipodi:cy="430.29587"
       sodipodi:rx="144.10043"
       sodipodi:ry="146.45073"
       sodipodi:start="2.6642473"
       sodipodi:end="6.1575654"
       d="M 485.73792,497.57869 A 144.10043,146.45073 0 0 1 502.3275,337.40316 144.10043,146.45073 0 0 1 653.6555,289.57847 144.10043,146.45073 0 0 1 756.69542,411.94709"
       sodipodi:open="true" />
    <path
       style="fill:#ff0000"
       d="m 510.1467,478.03351 67.23746,-20.46358 c 1e-5,82.82886 0,0 1e-5,82.82886 C 510.1467,478.03351 510.1467,478.03351 510.1467,478.03351 Z"
       id="rect3357"
       inkscape:connector-curvature="0"
       sodipodi:nodetypes="cccc" />
    <path
       style="fill:#ff0000"
       d="m 545.71435,464.87832 67.23746,-20.46358 c 10e-6,82.82886 0,0 10e-6,82.82886 -67.23747,-62.36528 -67.23747,-62.36528 -67.23747,-62.36528 z"
       id="rect3357-3"
       inkscape:connector-curvature="0"
       sodipodi:nodetypes="cccc" />
    <text
       xml:space="preserve"
       style="font-style:normal;font-weight:normal;font-size:37.05369568px;line-height:125%;font-family:sans-serif;letter-spacing:-1.9381305px;word-spacing:0px;fill:#000000;fill-opacity:1;stroke:none;stroke-width:1px;stroke-linecap:butt;stroke-linejoin:miter;stroke-opacity:1"
       x="394.82968"
       y="532.03296"
       id="text3455"
       sodipodi:linespacing="125%"
       transform="matrix(0.90652551,-0.26635222,0.29835629,1.0154509,0,0)"><tspan
         sodipodi:role="line"
         id="tspan3457"
         x="394.82968"
         y="532.03296"
         style="font-style:normal;font-variant:normal;font-weight:600;font-stretch:normal;font-size:83.37083435px;font-family:FreeSans;-inkscape-font-specification:'FreeSans Semi-Bold';letter-spacing:-1.9381305px;word-spacing:-2.74245477px;fill:#ffffff"
         dx="-6.444283">sag's</tspan></text>
  </g>
</svg>
